<svg width="16" height="16" viewBox="0 0 16 16" fill="none" xmlns="http://www.w3.org/2000/svg">
<path d="M9.97368 3.26316C9.93658 2.40026 9.82763 1.85 9.50158 1.42684C9.37554 1.26256 9.22849 1.11552 9.06421 0.989474C8.42474 0.5 7.49711 0.5 5.64184 0.5H5.24632C3.00895 0.5 1.89026 0.5 1.19474 1.19395C0.5 1.88711 0.5 3.00421 0.5 5.23684V10.7632C0.5 12.9958 0.5 14.1129 1.19474 14.8061C1.88947 15.4992 3.00895 15.5 5.24632 15.5H5.64105C7.49711 15.5 8.42474 15.5 9.06421 15.0105C9.22947 14.8837 9.37526 14.7379 9.50158 14.5732C9.82763 14.15 9.93658 13.5997 9.97368 12.7368M14.7105 8H5.23684M12.7368 10.7632C12.7368 10.7632 15.5 8.7279 15.5 8C15.5 7.27211 12.7368 5.23684 12.7368 5.23684" stroke="white" stroke-linecap="round" stroke-linejoin="round"/>
</svg>
