<svg width="15" height="15" viewBox="0 0 15 15" fill="none" xmlns="http://www.w3.org/2000/svg">
<path fill-rule="evenodd" clip-rule="evenodd" d="M0 0H12.9168V2.08317H12.0834V0.833266H0.833341V10.4158H9.74467V11.2491H0V0ZM12.5001 5.41623C12.8316 5.41623 13.1496 5.28455 13.384 5.05014C13.6184 4.81574 13.7501 4.49783 13.7501 4.16633C13.7501 3.83484 13.6184 3.51692 13.384 3.28252C13.1496 3.04812 12.8316 2.91643 12.5001 2.91643C12.1686 2.91643 11.8506 3.04812 11.6162 3.28252C11.3818 3.51692 11.2501 3.83484 11.2501 4.16633C11.2501 4.49783 11.3818 4.81574 11.6162 5.05014C11.8506 5.28455 12.1686 5.41623 12.5001 5.41623ZM13.3464 6.25366C13.8876 6.25366 14.316 6.49698 14.5964 6.87278C14.8585 7.22484 14.9693 7.66022 14.9943 8.06227C15.0191 8.4747 14.9629 8.88799 14.8289 9.27884C14.7039 9.64131 14.4926 10.0163 14.1668 10.2733V14.3738C14.1671 14.5309 14.1083 14.6822 14.002 14.7979C13.8958 14.9135 13.7499 14.9849 13.5934 14.9979C13.4369 15.0108 13.2813 14.9644 13.1574 14.8679C13.0336 14.7713 12.9507 14.6317 12.9251 14.4768L12.3876 11.2491H12.2634L11.6559 14.4888C11.6271 14.6417 11.5422 14.7784 11.418 14.872C11.2937 14.9657 11.139 15.0096 10.984 14.9953C10.8291 14.9809 10.6851 14.9092 10.5801 14.7943C10.4752 14.6794 10.417 14.5294 10.4168 14.3738V8.42974C10.3334 8.55665 10.2512 8.68429 10.1701 8.81262L10.1376 8.86387L10.1293 8.8772L10.1272 8.88095C10.071 8.97111 9.99281 9.04547 9.89993 9.09701C9.80705 9.14855 9.70256 9.17557 9.59634 9.17551H7.51299C7.34722 9.17551 7.18825 9.10967 7.07104 8.99247C6.95383 8.87527 6.88798 8.71631 6.88798 8.55056C6.88798 8.38482 6.95383 8.22586 7.07104 8.10866C7.18825 7.99146 7.34722 7.92561 7.51299 7.92561H9.25342C9.35467 7.76896 9.488 7.56564 9.62801 7.36149C9.77384 7.14859 9.93468 6.92319 10.078 6.74654C10.1476 6.6603 10.2255 6.57031 10.3038 6.49656C10.3422 6.46031 10.3955 6.41323 10.4605 6.37157C10.575 6.29585 10.7091 6.25503 10.8463 6.25408L13.3464 6.25366Z" fill="black"/>
</svg>
