<svg width="15" height="15" viewBox="0 0 15 15" fill="none" xmlns="http://www.w3.org/2000/svg">
<path fill-rule="evenodd" clip-rule="evenodd" d="M7.96358 14.6038L7.95462 14.6052L7.89679 14.6301L7.8805 14.633L7.8691 14.6301L7.81127 14.6052C7.80258 14.6028 7.79606 14.604 7.79172 14.6087L7.78846 14.6159L7.77462 14.9209L7.77869 14.9352L7.78683 14.9444L7.87154 14.9972L7.88376 15L7.89353 14.9972L7.97824 14.9444L7.98802 14.933L7.99127 14.9209L7.97743 14.6166C7.97526 14.609 7.97064 14.6047 7.96358 14.6038ZM8.17943 14.5232L8.16884 14.5246L8.01815 14.5909L8.01001 14.5981L8.00756 14.6059L8.02223 14.9124L8.0263 14.9209L8.03281 14.9259L8.19653 14.9922C8.20685 14.9946 8.21472 14.9927 8.22015 14.9865L8.22341 14.9765L8.19572 14.5389C8.193 14.5303 8.18757 14.5251 8.17943 14.5232ZM7.59705 14.5246C7.59346 14.5227 7.58917 14.5221 7.58508 14.5229C7.58098 14.5237 7.57739 14.5259 7.57506 14.5289L7.57017 14.5389L7.54248 14.9765C7.54302 14.9851 7.54764 14.9908 7.55633 14.9936L7.56854 14.9922L7.73226 14.9259L7.74041 14.9202L7.74366 14.9124L7.75751 14.6059L7.75507 14.5973L7.74692 14.5902L7.59705 14.5246Z" fill="black"/>
<path fill-rule="evenodd" clip-rule="evenodd" d="M13.7605 0.0489881C14.3576 0.15376 14.8243 0.562156 14.944 1.08459C15.0293 1.45893 15.017 1.84528 14.908 2.21487C14.799 2.58446 14.5961 2.92777 14.3144 3.21923L12.0737 5.53704L13.6571 10.6195C13.7044 10.7711 13.705 10.9309 13.6589 11.0827C13.6129 11.2345 13.5218 11.373 13.3948 11.4841L12.3343 12.4121C12.2443 12.4908 12.1346 12.5502 12.0138 12.5856C11.8931 12.6209 11.7646 12.6313 11.6385 12.6158C11.5124 12.6003 11.3921 12.5595 11.2872 12.4964C11.1822 12.4333 11.0954 12.3498 11.0336 12.2524L8.63728 8.47778L6.30941 10.1748L6.48046 10.9253C6.51356 11.0692 6.50552 11.218 6.45707 11.3585C6.40861 11.499 6.32124 11.6269 6.20271 11.7307L4.84737 12.916C4.75517 12.9965 4.64242 13.0568 4.5184 13.0917C4.39438 13.1267 4.26265 13.1354 4.13404 13.1171C4.00543 13.0988 3.88363 13.054 3.77867 12.9865C3.67371 12.9189 3.58859 12.8305 3.53031 12.7285L2.50403 10.9346L0.454729 10.0365C0.33819 9.98553 0.23716 9.91105 0.159957 9.8192C0.0827541 9.72735 0.0315876 9.62077 0.0106701 9.50823C-0.0102474 9.3957 -0.000317401 9.28042 0.0396425 9.1719C0.0796023 9.06338 0.148449 8.96472 0.240514 8.88403L1.59586 7.69804C1.71444 7.59444 1.86042 7.51805 2.02083 7.47566C2.18124 7.43326 2.35114 7.42617 2.51544 7.455L3.37311 7.60468L5.31246 5.5684L0.998821 3.47082C0.887505 3.41673 0.792059 3.34077 0.719994 3.24891C0.64793 3.15706 0.601216 3.05182 0.58353 2.94148C0.565844 2.83114 0.577668 2.71872 0.618072 2.61306C0.658476 2.5074 0.726358 2.41139 0.816371 2.33259L1.87686 1.40461C2.0038 1.29353 2.16205 1.2138 2.33556 1.17349C2.50907 1.13319 2.69167 1.13375 2.86486 1.17511L8.6723 2.56066L11.3219 0.599931C11.655 0.353449 12.0473 0.175901 12.4697 0.0805102C12.892 -0.0148806 13.3336 -0.0256555 13.7614 0.0489881H13.7605ZM13.3598 1.43526C13.1844 1.41489 13.006 1.42681 12.8362 1.47026C12.6663 1.51371 12.5087 1.58772 12.3734 1.68756L9.40047 3.8892C9.29859 3.96456 9.17729 4.01711 9.04703 4.04231C8.91677 4.06752 8.78145 4.06463 8.65275 4.03388L2.77771 2.63122L2.72313 2.67826L6.95451 4.73521C7.06035 4.78666 7.15191 4.85793 7.22265 4.94392C7.2934 5.02991 7.34157 5.1285 7.36375 5.23267C7.38592 5.33683 7.38154 5.44399 7.35093 5.5465C7.32031 5.64901 7.26422 5.74434 7.18664 5.82569L4.31631 8.83913C4.22154 8.9387 4.09781 9.01403 3.95818 9.05718C3.81855 9.10034 3.66819 9.10971 3.52298 9.08431L2.51544 8.90827L2.18312 9.19906L3.45131 9.75428C3.62473 9.83015 3.76534 9.95319 3.85204 10.1049L4.48736 11.2147L4.81886 10.9239L4.61768 10.0422C4.58866 9.91516 4.59937 9.78359 4.64868 9.66141C4.698 9.53923 4.78409 9.43095 4.89787 9.34802L8.34243 6.83635C8.4354 6.76847 8.54434 6.71938 8.66149 6.69259C8.77864 6.6658 8.9011 6.66197 9.02014 6.68137C9.13917 6.70078 9.25185 6.74293 9.35011 6.80483C9.44838 6.86674 9.52982 6.94686 9.58862 7.03948L11.9385 10.7421L11.9922 10.6944L10.3901 5.55343C10.3551 5.44076 10.3519 5.32232 10.3808 5.20833C10.4098 5.09434 10.47 4.98823 10.5563 4.89914L13.0715 2.29766C13.3036 2.05747 13.407 1.74458 13.3598 1.43526Z" fill="black"/>
</svg>
