<svg width="15" height="15" viewBox="0 0 15 15" fill="none" xmlns="http://www.w3.org/2000/svg">
<path d="M3.21429 3.75C3.21429 4.74456 3.66581 5.69839 4.46954 6.40165C5.27327 7.10491 6.36336 7.5 7.5 7.5C8.63664 7.5 9.72673 7.10491 10.5305 6.40165C11.3342 5.69839 11.7857 4.74456 11.7857 3.75C11.7857 2.75544 11.3342 1.80161 10.5305 1.09835C9.72673 0.395088 8.63664 0 7.5 0C6.36336 0 5.27327 0.395088 4.46954 1.09835C3.66581 1.80161 3.21429 2.75544 3.21429 3.75ZM6.37835 9.61523L7.00112 10.5234L5.88616 14.1533L4.6808 9.84961C4.61384 9.6123 4.35268 9.45703 4.08147 9.51855C1.73772 10.0312 0 11.8887 0 14.1006C0 14.5986 0.462054 15 1.0279 15H13.9721C14.5413 15 15 14.5957 15 14.1006C15 11.8887 13.2623 10.0312 10.9185 9.51855C10.6473 9.45996 10.3862 9.61523 10.3192 9.84961L9.11384 14.1533L7.99888 10.5234L8.62165 9.61523C8.83594 9.30176 8.57812 8.90625 8.16295 8.90625H6.8404C6.42522 8.90625 6.16741 9.30469 6.3817 9.61523H6.37835Z" fill="#010101"/>
</svg>
