<svg width="19" height="18" viewBox="0 0 19 18" fill="none" xmlns="http://www.w3.org/2000/svg">
<path d="M17.6 4H12.8V2.4096C12.8 1.2692 12.0636 0 10.9244 0H7.0876C5.9472 0 5.2 1.2692 5.2 2.4096V4H0.8C0.36 4 0 4.36 0 4.8V16.4C0 16.84 0.36 17.2 0.8 17.2H17.6C18.04 17.2 18.4 16.84 18.4 16.4V4.8C18.4 4.36 18.04 4 17.6 4ZM11.2 16H6.8V15.5732C6.8 15.564 7.0452 15.552 7.1624 15.538C7.2796 15.524 7.3824 15.5004 7.4668 15.4676C7.6168 15.4112 7.7848 15.3304 7.846 15.2252C7.9072 15.12 8 14.98 8 14.8068V10.7148C8 10.5508 7.9008 10.4064 7.8256 10.2824C7.7504 10.1584 7.626 10.0584 7.5136 9.9836C7.4292 9.9272 7.37 9.8736 7.1988 9.822C7.0276 9.7704 6.8 9.7372 6.8 9.7232V9.21L10.07 9.0272L10 9.1324V14.7152C10 14.8792 10.1264 15.0188 10.1968 15.1336C10.2672 15.2484 10.4136 15.334 10.5448 15.3904C10.6384 15.4324 10.7388 15.47 10.8516 15.5028C10.9644 15.5356 11.2 15.5588 11.2 15.5732V16ZM7.4476 6.4956C7.4476 6.13933 7.58467 5.83467 7.8588 5.5816C8.27 5.202 8.46 5.202 8.8396 5.202C9.2192 5.202 9.5452 5.3284 9.8168 5.5816C10.0884 5.8348 10.2248 6.1396 10.2248 6.4956C10.2248 6.8516 10.0876 7.1552 9.8136 7.406C9.5396 7.6568 9.2148 7.782 8.8396 7.782C8.45987 7.782 8.13293 7.65667 7.8588 7.406C7.4476 7.03 7.4476 6.852 7.4476 6.4956ZM11.6 4H6.4V2.4096C6.4 1.9828 6.832 1.2 7.2588 1.2H10.4796C10.9056 1.2 11.6 1.9828 11.6 2.4096V4Z" fill="#E4CCFF"/>
</svg>
