<svg width="20" height="20" viewBox="0 0 20 20" fill="none" xmlns="http://www.w3.org/2000/svg">
<path d="M2.08816 19.117C1.50403 19.1071 1.0077 18.8908 0.599165 18.4681C0.190633 18.0454 -0.00900312 17.5416 0.000257939 16.9567L0.25371 2.08797C0.263667 1.50385 0.48035 1.00752 0.90376 0.599C1.32717 0.190479 1.83059 -0.00916236 2.41402 7.45691e-05L17.2828 0.253526C17.8669 0.263483 18.3636 0.480173 18.7728 0.903594C19.182 1.32702 19.3813 1.83043 19.3707 2.41384L19.1172 17.2826C19.1073 17.8667 18.8909 18.3634 18.4682 18.7726C18.0455 19.1819 17.5417 19.3812 16.9569 19.3705L2.08816 19.117ZM4.28468 14.905L11.7191 15.0318L11.7553 12.9077L4.32089 12.7809L4.28468 14.905ZM4.3571 10.6568L14.9776 10.8379L15.0138 8.71375L4.3933 8.53271L4.3571 10.6568ZM4.42951 6.4086L15.05 6.58964L15.0863 4.46553L4.46572 4.2845L4.42951 6.4086Z" fill="white"/>
</svg>
