<svg width="21" height="21" viewBox="0 0 21 21" fill="none" xmlns="http://www.w3.org/2000/svg">
<path d="M12.5 0.5C16.271 0.5 18.157 0.5 19.328 1.96471C20.499 3.42941 20.5 5.78588 20.5 10.5C20.5 15.2141 20.5 17.5706 19.328 19.0353C18.156 20.5 16.271 20.5 12.5 20.5H8.5C4.729 20.5 2.843 20.5 1.672 19.0353C0.501 17.5706 0.5 15.2141 0.5 10.5C0.5 5.78588 0.5 3.42941 1.672 1.96471C2.844 0.5 4.729 0.5 8.5 0.5H12.5Z" stroke="white" stroke-linejoin="round"/>
<path d="M3.5 14.6176C5.109 12.1035 8.854 11.9659 10.5 14.6176M13.5 7.55879H17.5M13.5 12.2647H15.5M8.749 8.44115C8.749 8.98718 8.56463 9.51085 8.23644 9.89696C7.90825 10.2831 7.46313 10.5 6.999 10.5C6.53487 10.5 6.08975 10.2831 5.76156 9.89696C5.43337 9.51085 5.249 8.98718 5.249 8.44115C5.249 7.89511 5.43337 7.37144 5.76156 6.98534C6.08975 6.59923 6.53487 6.38232 6.999 6.38232C7.46313 6.38232 7.90825 6.59923 8.23644 6.98534C8.56463 7.37144 8.749 7.89511 8.749 8.44115Z" stroke="white" stroke-linecap="round"/>
</svg>
