<svg width="21" height="21" viewBox="0 0 21 21" fill="none" xmlns="http://www.w3.org/2000/svg">
<path d="M10.9493 13.5228C14.5831 13.5149 17.0308 13.4144 18.4589 13.3302C19.403 13.2744 20.1653 12.5902 20.2744 11.6298C20.3895 10.6209 20.5 9.10465 20.5 7.01163C20.5 4.9186 20.3895 3.40233 20.2744 2.39302C20.1653 1.43302 19.403 0.748837 18.4593 0.693023C16.9721 0.605116 14.3798 0.5 10.4945 0.5C10.1828 0.5 9.87958 0.50062 9.58487 0.50186M5.26429 15.3837V20.5M2.30811 3.98837C2.30811 4.79019 2.61956 5.55917 3.17395 6.12614C3.72834 6.69311 4.48026 7.01163 5.26429 7.01163C6.04832 7.01163 6.80024 6.69311 7.35463 6.12614C7.90902 5.55917 8.22047 4.79019 8.22047 3.98837C8.22047 3.18655 7.90902 2.41758 7.35463 1.85061C6.80024 1.28364 6.04832 0.965116 5.26429 0.965116C4.48026 0.965116 3.72834 1.28364 3.17395 1.85061C2.61956 2.41758 2.30811 3.18655 2.30811 3.98837Z" stroke="#FAFAFA" stroke-linecap="round" stroke-linejoin="round"/>
<path d="M12.5588 7.16889C12.843 7.18563 13.1009 7.34517 13.1618 7.62935C13.2273 7.93447 13.2646 8.40842 13.1459 9.07261C13.0809 9.43586 12.778 9.6968 12.4201 9.74703L8.67526 10.2675L7.85663 19.2535C7.80205 19.8507 7.37909 20.3433 6.79695 20.4117C6.29827 20.4703 5.79672 20.4999 5.29475 20.5001C4.72034 20.5001 4.20187 20.461 3.78573 20.414C3.17721 20.3447 2.7397 19.821 2.7065 19.1954L2.42543 13.9317C2.03411 13.911 1.64322 13.8826 1.25297 13.8466C1.04125 13.8269 0.84503 13.7247 0.704985 13.5612C0.564939 13.3976 0.491802 13.1852 0.500731 12.968C0.553942 11.2145 0.770426 9.61168 0.950526 8.54238C1.08606 7.73866 1.75188 7.15773 2.54868 7.11819C5.71317 6.96098 9.29788 6.97773 12.5588 7.16935V7.16889Z" stroke="#FAFAFA" stroke-linecap="round" stroke-linejoin="round"/>
</svg>
