<svg width="20" height="20" viewBox="0 0 20 20" fill="none" xmlns="http://www.w3.org/2000/svg">
<path d="M20 5.1642V20H0V5.1642H4.29688C4.30339 5.1642 4.41081 5.12127 4.61914 5.03542C4.82747 4.94956 5.11068 4.82507 5.46875 4.66194C5.82682 4.49882 6.23698 4.31852 6.69922 4.12106C7.16146 3.92359 7.66276 3.70466 8.20312 3.46426C8.74349 3.22387 9.29362 2.97918 9.85352 2.7302C10.4134 2.48122 10.9733 2.23224 11.5332 1.98326C12.0931 1.73428 12.6172 1.50247 13.1055 1.28783C13.5938 1.07319 14.0462 0.875724 14.4629 0.695428C14.8796 0.515132 15.2148 0.364885 15.4688 0.244688C15.7227 0.12449 15.9049 0.0429277 16.0156 0L17.3242 5.1642H20ZM8.22266 5.1642H16.0059L15.2344 2.08628L8.22266 5.1642ZM18.75 6.81262H1.25V18.3516H18.75V6.81262ZM16.25 8.46104V10.1095H15V8.46104H16.25ZM16.25 11.7579V13.4063H15V11.7579H16.25ZM16.25 16.7032H15V15.0547H16.25V16.7032ZM17.5 11.7579H16.25V10.1095H17.5V11.7579ZM17.5 15.0547H16.25V13.4063H17.5V15.0547ZM4.58008 13.4063L3.75 10.1095H5L5.625 11.7579H8.33008L7.5 8.46104H8.75L10 11.7579H12.5C12.6693 11.7579 12.8158 11.8394 12.9395 12.0026C13.0632 12.1657 13.125 12.3589 13.125 12.5821C13.125 12.8053 13.0632 12.9985 12.9395 13.1616C12.8158 13.3247 12.6693 13.4063 12.5 13.4063H10L8.75 16.7032H7.5L8.33008 13.4063H4.58008Z" fill="white"/>
</svg>
